<svg xmlns="http://www.w3.org/2000/svg" viewBox="0 0 1536 560"><defs><linearGradient id="w" x1="0" y1="0" x2="0" y2="1"><stop stop-color="#1b120b" stop-opacity="0"/><stop offset="0.45" stop-color="#17100b" stop-opacity="0.72"/><stop offset="1" stop-color="#080504" stop-opacity="0.96"/></linearGradient><linearGradient id="m"><stop stop-color="#e7c273"/><stop offset="0.38" stop-color="#9c6c31"/><stop offset="1" stop-color="#5a3918"/></linearGradient></defs><path d="M0 220C270 150 470 120 768 120s498 30 768 100v340H0z" fill="url(#w)"/><path d="M70 330C340 240 520 210 768 210s428 30 698 120" fill="none" stroke="url(#m)" stroke-width="8" opacity="0.72"/><path d="M180 390C390 315 552 292 768 292s378 23 588 98" fill="none" stroke="#7f5828" stroke-width="3" opacity="0.7"/><g fill="none" stroke="#b98942" opacity="0.52"><path d="M678 372c24-34 56-52 90-52s66 18 90 52"/><circle cx="768" cy="356" r="34"/><path d="M768 322v68M734 356h68"/></g></svg>