<svg xmlns="http://www.w3.org/2000/svg" viewBox="0 0 384 576"><defs><linearGradient id="b" x1="0" y1="0" x2="1" y2="1"><stop stop-color="#2c2016"/><stop offset=".45" stop-color="#100c09"/><stop offset="1" stop-color="#070504"/></linearGradient><linearGradient id="m" x1="0" y1="0" x2="1" y2="1"><stop stop-color="#efd080"/><stop offset=".3" stop-color="#a97834"/><stop offset=".7" stop-color="#5b3b18"/><stop offset="1" stop-color="#d7ab5b"/></linearGradient><filter id="s"><feDropShadow dx="0" dy="10" stdDeviation="12" flood-color="#000" flood-opacity=".55"/></filter></defs><rect x="22" y="22" width="340" height="532" rx="28" fill="url(#b)" stroke="url(#m)" stroke-width="8" filter="url(#s)"/><rect x="36" y="36" width="312" height="504" rx="21" fill="none" stroke="#6f522d" stroke-width="2" opacity=".85"/><g fill="none" stroke="#7b5c32" opacity=".4"><circle cx="192" cy="288" r="73"/><circle cx="192" cy="288" r="40"/><path d="M192 196v184M100 288h184M127 223l130 130M257 223L127 353"/></g><g fill="#c69b50" opacity=".65"><path d="M192 247l11 30 30 11-30 11-11 30-11-30-30-11 30-11z"/><circle cx="58" cy="58" r="5"/><circle cx="326" cy="58" r="5"/><circle cx="58" cy="518" r="5"/><circle cx="326" cy="518" r="5"/></g></svg>